<?xml version="1.0" encoding="utf-8"?>
<!-- Generator: Adobe Illustrator 22.1.0, SVG Export Plug-In . SVG Version: 6.00 Build 0)  -->
<svg version="1.1" id="Layer_1" xmlns="http://www.w3.org/2000/svg" xmlns:xlink="http://www.w3.org/1999/xlink" x="0px" y="0px"
	 viewBox="0 0 1280 1024" style="enable-background:new 0 0 1280 1024;" xml:space="preserve">
<style type="text/css">
	.st0{fill:#F7605C;}
	.st1{fill:#232A5B;}
</style>
<g>
	<path class="st0" d="M866.4,338.1l-39.8,39.8l-36.5,36.5L707,497.5c0,0,0,0,0,0l-2.8,2.8l-10.2,10.2l-37.8,37.8l-4.6,4.6l-1.2-1.2
		l-9.8-9.8l-9.2-9.2l-44.9-44.9l-10.3-10.3l-6.4-6.4l-16-16l-13.3-13.3l-38-38l-43-43l-22.7-22.7C410.2,311.6,397,276.8,397,242
		c0-34.8,13.3-69.6,39.8-96.1c53.1-53.1,139.1-53.1,192.2,0l22.7,22.7l22.7-22.7c53.1-53.1,139.1-53.1,192.2,0
		S919.5,285,866.4,338.1z"/>
	<g>
		<path class="st1" d="M659.5,330.3c-4.6-11.4-7.2-23.9-7.2-36.9v-62.5c0-4.1-3.5-7.4-7.8-7c-3.7,0.3-6.4,3.7-6.4,7.4v62.1
			c0,6.3,0.5,12.4,1.5,18.4c-11.7-6.9-20.8-17.7-25.4-30.7c-5.6-15.9-4-33.5,4.5-48.1l29.4-50.9c2.2-3.8,4.7-7.3,7.6-10.5
			c-0.6-0.1-1.2-0.1-1.8-0.1c-3.6,0-7.3,1.3-10.2,4.3l-20.3,20.5c-5.6,5.7-13,8.5-20.4,8.5c-7,0-14-2.5-19.5-7.6
			c-5.2-2.6-10.7-4.6-16.2-5.9c-5.6-1.3-11.2-2-16.9-2c-12.9,0-25.8,3.4-37.3,10.1l-6.7,3.9c-1.8,1.3-3.9,2-6,2
			c-2.3,0-4.5-0.8-6.4-2.3l-34-28.5c-2.9-2.4-6.3-3.5-9.6-3.5c-7.3,0-14.2,5.2-14.8,13.4c0,0.4,0,0.8,0,1.2v100.6
			c0,39.9,20.4,75.3,51.2,96.2c0,0,0.1,0.1,0.1,0.1h0l13,7.6l0.1,0c15.6,7.9,33.3,12.3,51.9,12.3c24.6,0,47.4-7.7,66.3-20.8
			c0,0,0,0,0,0l13-10.5c0,0,0,0,0,0C643.3,359.8,653,345.9,659.5,330.3z M502,317.2c-9.9,0-17.9-8.7-17.9-19.4
			c0-10.7,8-19.4,17.9-19.4c9.9,0,17.9,8.7,17.9,19.4C519.9,308.5,511.9,317.2,502,317.2z M559.4,332.8c-4.7,2.7-10.4,2.6-15-0.2
			c-5.1-3-11-7.3-11-11c0-6.5,7.8-6.1,19.1-6.1c11.3,0,17.6,0.2,17.6,6.7C570.1,325.8,564.4,329.9,559.4,332.8z M599.8,316.6
			c-9.9,0-17.9-8.7-17.9-19.4c0-10.7,8-19.4,17.9-19.4c9.9,0,17.9,8.7,17.9,19.4C617.7,307.9,609.7,316.6,599.8,316.6z"/>
		<path class="st1" d="M611.1,400.3c-17.5,19.1-31.4,42.8-41.4,70.8l-16-16l-13.3-13.3l-38-38c15.4,7.6,32.8,11.9,51.1,11.9
			C574.4,415.7,594.1,410.1,611.1,400.3z"/>
		<path class="st1" d="M656.2,548.3l0.5-53.4l0.3-9.2c0,0,0-4.3-0.1-4.3l-0.1,0L657,470c0-4.1-2.9-7.7-6.9-8.1
			c-4.6-0.5-8.6,3.1-8.6,7.7l0,4.4c2.7,0.9,4.7,3.3,4.9,6.4l0.4,6.8l1,0l-0.2,14.2l2.9,50.5L656.2,548.3z"/>
	</g>
	<path class="st1" d="M884.1,240.4l-33.6-58.3c-11.1-19.2-31.7-31.1-53.9-31.1H702c-17.8,0-34.6,7.7-46.3,20.7
		c6.3,0.8,11.9,5.5,12.4,12.8c0,0.4,0,0.8,0,1.2c0,0,0,48.9,0.1,100.3v0.2c0,15.6-3.1,30.5-8.8,44.2c2.2,5.4,4.9,10.5,7.9,15.4
		c0.5,0.8,1,1.6,1.6,2.4c0.2,0.2,0.3,0.5,0.5,0.7c0.7,1,1.4,2,2.1,3c0.2,0.3,0.4,0.5,0.6,0.8c0.5,0.7,1,1.4,1.6,2.1
		c0.3,0.4,0.6,0.7,0.9,1.1c0.5,0.6,1,1.2,1.5,1.7c18,20.9,44.7,34.2,74.4,34.2c25,0,47.8-9.4,65.1-24.8c0.6-0.5,1.2-1.1,1.8-1.6
		c0.3-0.3,0.6-0.5,0.8-0.8c0.8-0.7,1.5-1.5,2.3-2.2l0.3-0.3c0.8-0.8,1.6-1.7,2.4-2.5c0.3-0.3,0.5-0.6,0.8-0.9c0.5-0.6,1-1.2,1.5-1.8
		c14.5-17.1,23.2-39.2,23.2-63.3v-62.5c0-3.9,3.2-7.1,7.1-7.1c3.9,0,7.1,3.2,7.1,7.1v62.5c0,3.5-0.2,6.9-0.5,10.4
		c10.9-4.5,19.6-13,24.2-24.1C892,266.7,891,252.4,884.1,240.4z M725.7,268.9c-1.5,11.8-10.7,20.4-20.8,19.2
		c-10-1.2-17-11.8-15.6-23.6c1.4-11.8,10.7-20.4,20.8-19.2C720.2,246.5,727.1,257.1,725.7,268.9z M753.9,346.2
		c-9.6,0-24.2-11-24.2-20.6s16.3-11.5,25.9-11.5c9.6,0,23.8,3.2,23.8,12.7S763.5,346.2,753.9,346.2z M805,288.1
		c-10,1.2-19.3-7.4-20.8-19.2c-1.4-11.8,5.5-22.4,15.6-23.6c10-1.2,19.3,7.4,20.8,19.2C822,276.3,815.1,286.9,805,288.1z"/>
	<path class="st1" d="M790.1,414.4l-1.8,1.8v-1.5C788.9,414.6,789.5,414.5,790.1,414.4z"/>
	<path class="st1" d="M601.2,474.3c-4.7,5.5-9.6,10-14.7,13.6l-10.3-10.3c4.9-3,9.6-7.2,14.2-12.5c2.6-3,7.1-3.3,10.1-0.8
		C603.4,466.8,603.8,471.3,601.2,474.3z"/>
	<path class="st1" d="M826.6,377.9l-36.5,36.5l-51.7,51.7c-6.9-1.5-11-3.9-11.4-4.1c-3.3-2-7.7-0.9-9.7,2.4c-2,3.4-1,7.7,2.4,9.7
		c0.3,0.2,3,1.7,7.4,3.4L707,497.5c-6.8-26.4-17.2-48.1-31.2-65c-14.6-17.7-33.3-30.2-56-37.7c-2.8,1.9-5.7,3.8-8.7,5.5
		c14.7-16.1,31.9-28.8,51.3-38c20.6,26,52.4,42.6,88.1,42.6c28.7,0,55-10.8,74.9-28.6C825.8,376.9,826.2,377.4,826.6,377.9z"/>
</g>
<g>
	<path class="st0" d="M648.1,623.9L648.1,623.9c4.2,0.1,7.8,0.8,10.8,2.3c3.7,1.7,5.6,4.1,5.6,7.2v1.2h16.3v-10.7H648.1z
		 M664.5,662.7l13.8,0V652h-13.8V662.7z"/>
	<g>
		<path class="st1" d="M497,681.8c0,6.6-5.9,9.9-17.6,9.7c-6-0.1-10.2-0.9-12.8-2.3c-3-1.7-4.4-4.6-4.4-8.6v-48.4
			c0-3.2,1.9-5.7,5.7-7.4c3.1-1.5,6.8-2.3,11.1-2.3c8.1,0,14.1,1,18,2.9V651h-15.3v-14.3c0-1.7-0.7-2.5-2.1-2.5
			c-1.4,0-2.2,0.8-2.2,2.5v42.3c0,1.3,0.7,2,2.1,2c1.4,0,2.2-0.7,2.2-2v-18.8H497V681.8z"/>
		<path class="st1" d="M548.3,690.2h-14.8l-3.8-22.6h-9.5l-3.8,22.6h-14.8l14.1-66.6h18.3L548.3,690.2z M528,657.1l-3.1-18.2
			l-3,18.2H528z"/>
		<path class="st1" d="M589.1,690.2h-15.4c-1.1-1.8-1.6-3.8-1.6-6.1v-19.5c0-2.4-1.4-3.5-4.2-3.5v29.1h-14.8v-66.6h24.5
			c5.8,0,8.9,3.5,9.3,10.4c0.1,0.8,0.1,4.7,0,11.7c0,6.6-1.9,9.9-5.8,9.8c3.1,1.7,5.1,4.9,5.8,9.7v19
			C586.9,685.4,587.7,687.4,589.1,690.2z M572.1,646.5v-10c0-2.5-1.4-3.8-4.2-4v18.3C570.7,650.9,572.1,649.5,572.1,646.5z"/>
		<path class="st1" d="M621.2,690.6h-27.4V624h27.4v10.4h-12v16.8h9.8v10.4h-9.8v18.6h12V690.6z"/>
		<path class="st1" d="M664.5,662.6l0,1.9L664.5,662.6L664.5,662.6z M636.1,626.1c-3.7,1.7-5.6,4.1-5.6,7.2v47.2
			c0,4,1.5,6.8,4.6,8.4c2.6,1.5,6.8,2.2,12.6,2.2h0.4v-11.4c-0.2,0-0.4,0.1-0.6,0.1c-1.4-0.1-2-0.7-2-2v-40.1c0-1.6,0.7-2.5,2.1-2.5
			c0.2,0,0.4,0,0.5,0.1v-11.4h-1.1C642.8,623.9,639.1,624.6,636.1,626.1z"/>
		<path class="st0" d="M664.5,633.3v29.3h0l0,1.9v16c0,4-1.4,6.8-4.3,8.4c-2.5,1.4-6.5,2.2-12.1,2.2v-11.4c1-0.2,1.5-0.8,1.5-2
			v-40.1c0-1.4-0.5-2.2-1.5-2.4v-11.4c4.2,0,7.8,0.7,10.8,2.2C662.6,627.8,664.5,630.2,664.5,633.3z"/>
		<path class="st0" d="M722.9,645.9c0,10.1-5.1,15.2-15.3,15.2c-1,0-2.1,0-3.4,0v28.2h-14.4v-64.9h14.4c7.5,0,12.4,1.1,14.9,3.2
			c2.5,2.1,3.7,6.2,3.7,12.2V645.9z M708.4,646.8V637c0-2.4-1.4-3.7-4.1-3.9v17.8C707,651.1,708.4,649.7,708.4,646.8z"/>
		<path class="st0" d="M755.3,689.5h-26.7v-64.9h26.7v10.1h-11.7v16.4h9.5v10.1h-9.5v18.1h11.7V689.5z"/>
		<path class="st0" d="M794.1,634.5h-9.5v54.8h-15v-54.8h-9.4v-10.1h34V634.5z"/>
		<path class="st0" d="M833.2,673.3c-0.1,4.6-0.1,7-0.2,7.1c-0.2,3.1-0.9,5.1-2.1,6.3c-3.1,2.4-8.2,3.5-15.3,3.5
			c-6,0-11.6-0.8-16.8-2.3v-24.3h13.8V676c0,3.2,1,4.8,3.1,4.8c1.8,0,2.7-1.6,2.8-4.7c0-2.6-0.3-5.1-0.9-7.6c-0.6-2.5-1.3-4-2-4.6
			l-10.9-7.7c-2.1-1.3-3.6-3.3-4.7-5.9c-1-2.3-1.3-4.3-1.1-6.1v-11.2c0.2-2.1,0.4-3.4,0.6-3.9c0.5-1.1,1.5-2.2,3.2-3.3
			c2.4-1.2,6.2-1.8,11.3-1.8c5.7,0,11.5,0.6,17.6,1.9v23h-13.8v-9.8c0-2.9-0.7-4.4-2.2-4.5c-1.2,0-1.9,0.1-2.2,0.4
			c-0.5,0.5-0.8,1.9-0.8,4c0.1,5.2,1.8,9,5.3,11.4l10.2,7C831.7,659.9,833.4,665.2,833.2,673.3z"/>
	</g>
</g>
</svg>
